<svg width="34" height="41" viewBox="0 0 34 41" fill="none" xmlns="http://www.w3.org/2000/svg">
<path d="M6.66428 0.131226C6.66428 0.131226 4.60235 1.97736 3.01024 3.92849C1.52252 5.75713 0 8.02324 0 8.02324H6.66428V0.131226Z" fill="#CACACA"/>
<path d="M33.7304 30.2644L32.2861 28.812C31.9294 28.4533 31.3639 28.4533 31.0072 28.812L24.2473 35.6103L21.7503 33.108C21.3936 32.7493 20.8281 32.7493 20.4714 33.108L19.0185 34.5604C18.6618 34.9191 18.6618 35.4879 19.0185 35.8466L23.6121 40.4488C23.9688 40.8075 24.5344 40.8075 24.8911 40.4488L25.7611 39.5739L26.344 38.9876L33.7391 31.5506C34.0871 31.2006 34.0871 30.6232 33.7304 30.2644Z" fill="#CACACA"/>
<path d="M26.4832 40.125L25.6132 41H29.9893V36.599L27.1618 39.4513L26.4832 40.125Z" fill="#CACACA"/>
<path d="M18.3659 36.319C18.2093 36.1615 18.0875 35.9691 18.0005 35.7678C17.9222 35.5666 17.8787 35.3566 17.8787 35.1466C17.8787 34.9366 17.9222 34.7179 18.0005 34.5254C18.0788 34.3242 18.2006 34.1404 18.3659 33.9742L20.0364 32.2943C20.193 32.1368 20.3844 32.0143 20.5845 31.9268C20.7846 31.8481 20.9934 31.8043 21.2022 31.8043C21.411 31.8043 21.6285 31.8481 21.8199 31.9268C22.02 32.0055 22.2027 32.128 22.368 32.2943L24.3081 34.2454L29.9806 28.5408V0H7.3255V8.77571H0.147919V41.0087H23.0292L18.3572 36.3103L18.3659 36.319ZM5.19398 10.5344H26.0916C26.7615 10.5344 27.3096 10.8231 27.3096 11.1731C27.3096 11.523 26.7615 11.8118 26.0916 11.8118H5.19398C4.52407 11.8118 3.97596 11.523 3.97596 11.1731C3.97596 10.8231 4.52407 10.5344 5.19398 10.5344ZM5.19398 14.6116H26.0916C26.7615 14.6116 27.3096 14.9003 27.3096 15.2503C27.3096 15.6003 26.7615 15.889 26.0916 15.889H5.19398C4.52407 15.889 3.97596 15.6003 3.97596 15.2503C3.97596 14.9003 4.52407 14.6116 5.19398 14.6116ZM5.19398 18.6889H26.0916C26.7615 18.6889 27.3096 18.9776 27.3096 19.3276C27.3096 19.6775 26.7615 19.9663 26.0916 19.9663H5.19398C4.52407 19.9663 3.97596 19.6775 3.97596 19.3276C3.97596 18.9776 4.52407 18.6889 5.19398 18.6889ZM5.19398 22.7574H26.0916C26.7615 22.7574 27.3096 23.0461 27.3096 23.3961C27.3096 23.746 26.7615 24.0348 26.0916 24.0348H5.19398C4.52407 24.0348 3.97596 23.746 3.97596 23.3961C3.97596 23.0461 4.52407 22.7574 5.19398 22.7574ZM3.97596 27.4733C3.97596 27.1233 4.52407 26.8346 5.19398 26.8346H26.0916C26.7615 26.8346 27.3096 27.1233 27.3096 27.4733C27.3096 27.8233 26.7615 28.112 26.0916 28.112H5.19398C4.52407 28.112 3.97596 27.8233 3.97596 27.4733Z" fill="#CACACA"/>
</svg>
