<svg width="38" height="34" viewBox="0 0 38 34" fill="none" xmlns="http://www.w3.org/2000/svg">
<path d="M36.6581 0H1.2809C0.609952 0 0 0.603908 0 1.26821V28.3233C0 29.048 0.609952 29.5915 1.2809 29.5915H12.931V32.4298H11.3451C10.4912 32.4298 9.75923 33.0941 9.75923 34H28.4848C28.4238 33.1545 27.7528 32.4298 26.8989 32.4298H25.13V29.5915H36.7191C37.451 29.5915 38 28.9876 38 28.3233V1.3286C38 0.603908 37.39 0 36.6581 0ZM18.9695 28.444C18.2376 28.444 17.5666 27.8401 17.5666 27.1155C17.5666 26.3908 18.1766 25.7265 18.9695 25.7265C19.7014 25.7265 20.3724 26.3304 20.3724 27.1155C20.3724 27.8401 19.7624 28.444 18.9695 28.444ZM35.5602 24.1563H2.43981V2.47602H35.5602V24.1563Z" fill="#CACACA"/>
<path d="M16.7126 7.1261H23.4221C23.971 7.1261 24.459 6.70337 24.459 6.09946C24.459 5.49555 24.032 5.07281 23.4221 5.07281H16.7126C16.1637 5.07281 15.6757 5.49555 15.6757 6.09946C15.6757 6.70337 16.1027 7.1261 16.7126 7.1261Z" fill="#CACACA"/>
<path d="M16.6516 10.5684H20.7383C21.2873 10.5684 21.7752 10.1457 21.7752 9.54178C21.7752 8.93787 21.3483 8.51514 20.7383 8.51514H16.6516C16.1027 8.51514 15.6147 8.93787 15.6147 9.54178C15.6147 10.1457 16.1027 10.5684 16.6516 10.5684Z" fill="#CACACA"/>
<path d="M16.7126 17.0906H23.4221C23.971 17.0906 24.459 16.6678 24.459 16.0639C24.459 15.46 24.032 15.0373 23.4221 15.0373H16.7126C16.1637 15.0373 15.6757 15.46 15.6757 16.0639C15.6757 16.6678 16.1637 17.0906 16.7126 17.0906Z" fill="#CACACA"/>
<path d="M16.6516 20.5329H20.7383C21.2873 20.5329 21.7752 20.1102 21.7752 19.5063C21.7752 18.9023 21.3483 18.4796 20.7383 18.4796H16.6516C16.1027 18.4796 15.6147 18.9023 15.6147 19.5063C15.6147 20.1102 16.1027 20.5329 16.6516 20.5329Z" fill="#CACACA"/>
<path d="M10.2472 5.37473L7.86835 7.72997L6.70944 6.58255C6.22148 6.09942 5.42854 6.09942 5.00158 6.58255C4.51361 7.06568 4.51361 7.85076 5.00158 8.27349L7.07541 10.3268C7.31939 10.5683 7.62437 10.6891 7.92934 10.6891C8.23432 10.6891 8.5393 10.5683 8.78328 10.3268L12.077 7.06568C12.321 6.82411 12.443 6.52216 12.443 6.22021C12.443 5.91825 12.321 5.6163 12.077 5.37473C11.5281 4.89161 10.6741 4.89161 10.2472 5.37473Z" fill="#CACACA"/>
<path d="M10.0642 14.0106H6.77047C5.55057 14.0106 4.57465 14.9769 4.57465 16.1847V19.4458C4.57465 20.6536 5.55057 21.6199 6.77047 21.6199H10.0642C11.2841 21.6199 12.26 20.6536 12.26 19.4458V16.1847C12.26 14.9769 11.2841 14.0106 10.0642 14.0106ZM10.0032 16.2451V19.3854H6.83147V16.2451C6.89246 16.2451 10.0032 16.2451 10.0032 16.2451Z" fill="#CACACA"/>
<path d="M25.862 9.66244C26.045 9.48127 26.2889 9.42088 26.5329 9.54166L32.1445 11.4138C32.3885 11.4742 32.5714 11.7157 32.5714 11.9573C32.5714 12.1989 32.5104 12.4404 32.2665 12.5612L30.8636 13.2859L33.1204 15.5203C33.4864 15.8827 33.4864 16.4866 33.1204 16.8489C32.9374 17.0301 32.6934 17.1509 32.4494 17.1509C32.2055 17.1509 31.9615 17.0301 31.7785 16.8489L29.5217 14.6145L28.7287 15.9431C28.6068 16.1846 28.3628 16.245 28.1188 16.245C27.8748 16.245 27.6918 16.0639 27.5698 15.8223L25.74 10.2663C25.618 10.0852 25.679 9.84361 25.862 9.66244Z" fill="#CACACA"/>
</svg>
