<svg width="45" height="45" viewBox="0 0 45 45" fill="none" xmlns="http://www.w3.org/2000/svg">
<path d="M16.875 22.0312C15.5813 22.0312 14.5312 23.0812 14.5312 24.375C14.5312 25.6688 15.5813 26.7188 16.875 26.7188C18.1687 26.7188 19.2188 25.6688 19.2188 24.375C19.2188 23.0812 18.1687 22.0312 16.875 22.0312ZM28.125 22.0312C26.8312 22.0312 25.7812 23.0812 25.7812 24.375C25.7812 25.6688 26.8312 26.7188 28.125 26.7188C29.4188 26.7188 30.4688 25.6688 30.4688 24.375C30.4688 23.0812 29.4188 22.0312 28.125 22.0312ZM22.5 3.75C12.15 3.75 3.75 12.15 3.75 22.5C3.75 32.85 12.15 41.25 22.5 41.25C32.85 41.25 41.25 32.85 41.25 22.5C41.25 12.15 32.85 3.75 22.5 3.75ZM22.5 37.5C14.2313 37.5 7.5 30.7687 7.5 22.5C7.5 21.9562 7.5375 21.4125 7.59375 20.8875C12.0188 18.9188 15.525 15.3 17.3625 10.8187C20.7563 15.6187 26.3438 18.75 32.6625 18.75C34.125 18.75 35.5312 18.5812 36.8812 18.2625C37.275 19.5938 37.5 21.0187 37.5 22.5C37.5 30.7687 30.7687 37.5 22.5 37.5Z" fill="#CACACA"/>
</svg>
