<svg width="20" height="17" viewBox="0 0 20 17" fill="none" xmlns="http://www.w3.org/2000/svg">
<path d="M18 0.421021H2C1.4713 0.423664 0.965159 0.635544 0.592247 1.01033C0.219334 1.38512 0.00999338 1.89232 0.00999999 2.42102L0 14.421C0.00158273 14.951 0.212805 15.4588 0.587535 15.8335C0.962265 16.2082 1.47005 16.4194 2 16.421H18C18.5299 16.4194 19.0377 16.2082 19.4125 15.8335C19.7872 15.4588 19.9984 14.951 20 14.421V2.42102C19.9984 1.89107 19.7872 1.38329 19.4125 1.00856C19.0377 0.633825 18.5299 0.422603 18 0.421021ZM18 4.42102L10 9.42102L2 4.42102V2.42102L10 7.42102L18 2.42102V4.42102Z" fill="#47CDFF"/>
</svg>
