<svg width="45" height="45" viewBox="0 0 45 45" fill="none" xmlns="http://www.w3.org/2000/svg">
<path d="M35.8876 24.255C35.9551 23.6925 36.0001 23.1075 36.0001 22.5C36.0001 21.8925 35.9551 21.3075 35.8651 20.745L39.6676 17.775C40.0051 17.505 40.0951 17.01 39.8926 16.6275L36.2926 10.395C36.0676 9.99002 35.5951 9.85502 35.1901 9.99002L30.7126 11.79C29.7676 11.07 28.7776 10.485 27.6751 10.035L27.0001 5.26502C26.9326 4.81502 26.5501 4.50002 26.1001 4.50002H18.9001C18.4501 4.50002 18.0901 4.81502 18.0226 5.26502L17.3476 10.035C16.2451 10.485 15.2326 11.0925 14.3101 11.79L9.83259 9.99002C9.42759 9.83252 8.95509 9.99002 8.73009 10.395L5.13009 16.6275C4.90509 17.0325 4.99509 17.505 5.35509 17.775L9.15759 20.745C9.06759 21.3075 9.00009 21.915 9.00009 22.5C9.00009 23.085 9.04509 23.6925 9.13509 24.255L5.33259 27.225C4.99509 27.495 4.90509 27.99 5.10759 28.3725L8.70759 34.605C8.93259 35.01 9.40509 35.145 9.81009 35.01L14.2876 33.21C15.2326 33.93 16.2226 34.515 17.3251 34.965L18.0001 39.735C18.0901 40.185 18.4501 40.5 18.9001 40.5H26.1001C26.5501 40.5 26.9326 40.185 26.9776 39.735L27.6526 34.965C28.7551 34.515 29.7676 33.9075 30.6901 33.21L35.1676 35.01C35.5726 35.1675 36.0451 35.01 36.2701 34.605L39.8701 28.3725C40.0951 27.9675 40.0051 27.495 39.6451 27.225L35.8876 24.255ZM22.5001 29.25C18.7876 29.25 15.7501 26.2125 15.7501 22.5C15.7501 18.7875 18.7876 15.75 22.5001 15.75C26.2126 15.75 29.2501 18.7875 29.2501 22.5C29.2501 26.2125 26.2126 29.25 22.5001 29.25Z" fill="#CACACA"/>
</svg>
