<svg width="20" height="20" viewBox="0 0 20 20" fill="none" xmlns="http://www.w3.org/2000/svg">
<path fill-rule="evenodd" clip-rule="evenodd" d="M18.9537 16.877L14.7331 12.6003C14.7107 12.5773 14.6848 12.5617 14.6606 12.5405C15.5192 11.2252 15.9772 9.67724 15.9761 8.0937C15.9691 7.02359 15.7569 5.96539 15.3516 4.9795C14.9464 3.99362 14.356 3.09937 13.6143 2.34781C12.8725 1.59625 11.9939 1.00211 11.0285 0.599303C10.0632 0.196497 9.03001 -0.0070832 7.98806 0.000188127C6.9461 -0.0070832 5.91295 0.196497 4.9476 0.599303C3.98226 1.00211 3.10362 1.59625 2.36185 2.34781C1.62009 3.09937 1.02973 3.99362 0.624478 4.9795C0.21923 5.96539 0.00703225 7.02359 0 8.0937C0.00703225 9.16381 0.21923 10.222 0.624478 11.2079C1.02973 12.1938 1.62009 13.088 2.36185 13.8396C3.10362 14.5912 3.98226 15.1853 4.9476 15.5881C5.91295 15.9909 6.9461 16.1945 7.98806 16.1872C9.54566 16.1897 11.0703 15.7266 12.3761 14.8545C12.3967 14.8785 12.4128 14.9051 12.4352 14.9272L16.6558 19.2039C16.9623 19.5126 17.3745 19.6855 17.8039 19.6855C18.2332 19.6855 18.6454 19.5126 18.9519 19.2039C19.1027 19.0523 19.2224 18.8714 19.3042 18.6717C19.3861 18.472 19.4283 18.2575 19.4285 18.0408C19.4286 17.8242 19.3867 17.6097 19.3052 17.4098C19.2237 17.21 19.1042 17.0289 18.9537 16.877ZM7.98806 13.3812C6.97268 13.367 5.98405 13.0448 5.14648 12.4552C4.30891 11.8655 3.6598 11.0347 3.28078 10.0671C2.90176 9.09959 2.80975 8.03856 3.01633 7.01746C3.2229 5.99636 3.71884 5.06079 4.44177 4.32839C5.1647 3.596 6.08234 3.09948 7.0793 2.90128C8.07626 2.70307 9.10803 2.81204 10.0449 3.21446C10.9817 3.61689 11.7817 4.29481 12.3444 5.16298C12.9071 6.03115 13.2072 7.0508 13.2072 8.0937C13.1977 9.50563 12.6425 10.8559 11.6638 11.8474C10.685 12.839 9.36284 13.3907 7.98806 13.3812Z" fill="#C3C3C3"/>
</svg>
