<svg width="45" height="45" viewBox="0 0 45 45" fill="none" xmlns="http://www.w3.org/2000/svg">
<path d="M22.5 3.75C12.15 3.75 3.75 12.15 3.75 22.5C3.75 32.85 12.15 41.25 22.5 41.25C32.85 41.25 41.25 32.85 41.25 22.5C41.25 12.15 32.85 3.75 22.5 3.75ZM24.375 35.625H20.625V31.875H24.375V35.625ZM28.2562 21.0938L26.5688 22.8188C25.2188 24.1875 24.375 25.3125 24.375 28.125H20.625V27.1875C20.625 25.125 21.4688 23.25 22.8188 21.8813L25.1437 19.5187C25.8375 18.8438 26.25 17.9062 26.25 16.875C26.25 14.8125 24.5625 13.125 22.5 13.125C20.4375 13.125 18.75 14.8125 18.75 16.875H15C15 12.7312 18.3562 9.375 22.5 9.375C26.6437 9.375 30 12.7312 30 16.875C30 18.525 29.325 20.025 28.2562 21.0938Z" fill="#CACACA"/>
</svg>
