<svg width="146" height="177" viewBox="0 0 146 177" fill="none" xmlns="http://www.w3.org/2000/svg">
<path d="M78.3324 176.573C105.001 176.573 126.62 174.438 126.62 171.804C126.62 169.171 105.001 167.036 78.3324 167.036C51.664 167.036 30.045 169.171 30.045 171.804C30.045 174.438 51.664 176.573 78.3324 176.573Z" fill="#E6E6E6"/>
<path d="M122.543 102.324L142.426 114.824C145.347 116.651 146.22 120.506 144.394 123.408C142.568 126.33 138.713 127.202 135.811 125.376L115.928 112.876C113.007 111.05 112.134 107.194 113.96 104.293C115.786 101.371 119.641 100.498 122.543 102.324Z" fill="#231F20"/>
<path d="M12.7404 123.347L33.577 112.531C36.6203 110.949 37.8173 107.194 36.2348 104.13C34.6523 101.087 30.8989 99.8893 27.8352 101.472L6.99867 112.288C3.95535 113.871 2.75831 117.625 4.34084 120.689C5.92336 123.753 9.69707 124.93 12.7404 123.347Z" fill="#231F20"/>
<path d="M35.0173 87.9164C32.8058 95.8709 26.1308 100.68 16.6153 98.306C3.58993 95.0592 5.8217 84.1623 6.45065 80.7938C7.0796 77.4253 1.98712 75.7208 0.76979 64.9659C-0.325805 55.2865 6.38978 46.6218 16.1284 46.6218C25.867 46.6218 33.7797 54.5357 33.7797 64.276C33.7797 67.6039 32.8464 70.7289 31.2436 73.3872C34.8955 77.1006 36.4983 82.5795 35.0173 87.9164Z" fill="#3256D8"/>
<path d="M144.617 68.6391C143.603 77.7706 138.916 76.269 135.69 80.6115C134.209 82.6001 139.748 87.105 135.893 91.3663C132.606 94.9986 125.14 96.5611 121.143 95.4451C113.758 93.3956 109.437 85.7454 111.486 78.3591C111.871 76.9589 112.46 75.6805 113.21 74.5238C111.242 70.7089 110.674 66.1837 111.912 61.7195C112.013 61.3745 112.115 61.0498 112.216 60.7048C108.118 56.3623 106.332 50.0312 108.057 43.842C110.674 34.4468 116.903 26.7966 125.749 30.8753C140.986 37.8964 135.893 46.2974 136.299 53.1967C136.542 57.3566 145.753 58.2698 144.617 68.6391Z" fill="#3256D8"/>
<path d="M65.6928 144.146H59.7076V163.058H65.6928V144.146Z" fill="#231F20"/>
<path d="M91.9067 140.879V162.206C91.9067 164.012 93.2458 165.494 94.9095 165.494C96.5732 165.494 97.9122 164.033 97.9122 162.206V140.879C97.9122 139.073 96.5732 137.592 94.9095 137.592C93.2458 137.612 91.9067 139.073 91.9067 140.879Z" fill="#231F20"/>
<path d="M96.7169 160.096C96.7169 160.096 108.789 161.456 109.945 167.889C111.122 174.321 104.893 173.733 104.893 173.733H93.0244C93.0244 173.733 89.5144 174.118 89.5144 171.014C89.5144 167.889 90.6912 163.221 90.8738 162.633C91.0564 162.045 92.8215 159.914 96.7169 160.096Z" fill="#231F20"/>
<path d="M61.2103 160.441C61.2103 160.441 49.6051 161.76 48.4893 167.929C47.3734 174.098 53.3586 173.55 53.3586 173.55H64.7812C64.7812 173.55 68.1491 173.915 68.1491 170.932C68.1491 167.929 67.0332 163.444 66.8303 162.876C66.6477 162.308 64.9638 160.258 61.2103 160.441Z" fill="#231F20"/>
<path d="M123.902 67.7865V143.213C123.902 143.213 123.902 143.213 123.902 146.967C123.902 150.376 119.56 156.585 113.271 157.661C112.662 157.762 112.013 157.823 111.363 157.823C104.059 157.823 100.692 151.086 95.8222 151.086C90.9529 151.086 87.0169 156.707 77.6638 156.707C68.3106 156.707 68.8584 151.086 61.3921 151.086C53.9056 151.086 55.7722 157.823 43.4163 157.823C31.243 157.823 29.1938 150.153 29.1938 150.153V67.7865C29.1938 41.6299 50.3956 20.4246 76.5479 20.4246C85.7184 20.4246 94.2803 23.0423 101.544 27.5471C104.607 29.4546 107.448 31.707 109.984 34.2435C110.004 34.2638 110.004 34.2638 110.024 34.2841C118.607 42.8677 123.902 54.7184 123.902 67.7865Z" fill="#3B5DF6"/>
<path d="M86.1649 26.4514C86.2255 26.4918 86.3064 26.512 86.367 26.5525C86.3064 26.5323 86.2457 26.4918 86.1649 26.4514Z" fill="#2044C6"/>
<path d="M110.044 34.3043C118.606 42.8676 123.922 54.7182 123.922 67.7864V76.5729C120.838 71.5405 117.551 64.1947 115.948 57.0721C113.128 44.5519 104.83 34.9334 86.3877 26.5324C87.3412 26.7556 84.0342 21.0332 89.0252 22.3522C94.2597 23.7524 108.543 32.8433 110.024 34.2637C110.024 34.284 110.024 34.284 110.044 34.3043Z" fill="#2044C6"/>
<path d="M97.5262 84.6905C104.137 84.6905 109.497 79.3303 109.497 72.7181C109.497 66.1059 104.137 60.7457 97.5262 60.7457C90.9151 60.7457 85.5558 66.1059 85.5558 72.7181C85.5558 79.3303 90.9151 84.6905 97.5262 84.6905Z" fill="white"/>
<path d="M106.048 72.7179C106.048 77.4257 102.233 81.2406 97.5263 81.2406C92.8193 81.2406 89.005 77.4257 89.005 72.7179C89.005 72.0483 89.0862 71.3786 89.2282 70.7496C89.7963 72.4541 91.4194 73.6716 93.3062 73.6716C95.68 73.6716 97.6074 71.7439 97.6074 69.3697C97.6074 67.1376 95.9032 65.3113 93.7323 65.088C94.8685 64.5199 96.1467 64.1952 97.506 64.1952C102.233 64.1952 106.048 68.0101 106.048 72.7179Z" fill="#0C0C0C"/>
<path d="M55.5086 84.6905C62.1196 84.6905 67.479 79.3303 67.479 72.7181C67.479 66.1059 62.1196 60.7457 55.5086 60.7457C48.8975 60.7457 43.5382 66.1059 43.5382 72.7181C43.5382 79.3303 48.8975 84.6905 55.5086 84.6905Z" fill="white"/>
<path d="M64.0295 72.7179C64.0295 77.4257 60.2152 81.2406 55.5082 81.2406C50.8012 81.2406 46.9869 77.4257 46.9869 72.7179C46.9869 72.0483 47.0681 71.3786 47.2101 70.7496C47.7782 72.4541 49.4013 73.6716 51.2882 73.6716C53.662 73.6716 55.5894 71.7439 55.5894 69.3697C55.5894 67.1376 53.8851 65.3113 51.7142 65.088C52.8504 64.5199 54.1286 64.1952 55.4879 64.1952C60.2152 64.1952 64.0295 68.0101 64.0295 72.7179Z" fill="#0C0C0C"/>
<path d="M87.8508 21.7844C87.4451 24.5848 86.0451 29.2317 81.257 31.4232C74.1559 34.67 60.7653 36.2934 51.4325 40.1489C42.0996 44.0044 39.2592 54.3534 36.4187 57.1943C35.1 58.5133 32.4421 61.3745 29.3785 63.911C30.6567 48.1643 39.6447 34.5888 52.5483 26.9792C56.2003 26.127 72.898 22.6367 82.0077 20.7495C85.5785 20.019 87.9929 19.5117 87.9929 19.5117C87.9929 19.5117 88.0334 20.4249 87.8508 21.7844Z" fill="#2044C6"/>
<path d="M83.2843 4.43459C83.2843 4.43459 79.896 -0.557291 63.665 0.0514744C50.3353 0.558779 34.4086 3.25764 19.6384 18.5174C7.0593 31.5044 8.21576 51.5125 8.21576 51.5125C8.21576 51.5125 11.6649 49.4832 15.114 53.9475C18.563 58.4118 19.7804 64.7024 29.7219 59.4264C39.6634 54.1504 36.823 34.8729 59.3435 33.8582C81.8641 32.8436 99.9211 13.769 83.2843 4.43459Z" fill="#3256D8"/>
<path d="M88.7613 11.9431C88.7613 11.9431 108.096 7.96588 117.835 19.3295C127.574 30.6931 133.255 46.724 133.255 46.724C133.255 46.724 126.113 75.0316 124.267 71.3993C115.745 54.5567 117.977 42.1785 105.195 33.4529C92.4133 24.7272 80.24 20.4659 80.24 20.4659L88.7613 11.9431Z" fill="#3256D8"/>
<path d="M89.5726 18.4366C91.1413 18.4366 92.413 17.1647 92.413 15.5957C92.413 14.0267 91.1413 12.7548 89.5726 12.7548C88.0039 12.7548 86.7322 14.0267 86.7322 15.5957C86.7322 17.1647 88.0039 18.4366 89.5726 18.4366Z" fill="#0C0C0C"/>
<path d="M89.5727 13.9724C89.5727 13.9724 86.6917 15.1494 82.7354 16.8945C78.7791 18.6396 80.1182 21.8052 82.5325 22.1705C84.9469 22.5357 84.7643 22.7792 85.3729 23.7938C86.8946 26.3304 89.7959 24.6055 90.2422 22.5763C90.6886 20.5471 90.5871 16.5901 90.5871 15.8596C90.5871 15.1291 89.5727 13.9724 89.5727 13.9724Z" fill="#0C0C0C"/>
<path d="M88.8232 14.0534C88.8232 14.0534 88.6203 12.2271 88.8232 8.16862C89.0261 4.02902 93.7534 4.29281 94.5041 6.54525C94.8693 7.66132 95.133 8.24979 96.1272 7.9657C97.5474 7.55985 99.1705 8.77739 99.1705 10.4008C99.1705 12.6735 95.2547 13.7084 93.4896 14.4592C91.7245 15.21 91.5013 15.3521 90.8521 15.4738C90.1826 15.5753 88.8232 14.0534 88.8232 14.0534Z" fill="#0C0C0C"/>
<path d="M76.568 98.124C73.2203 98.124 70.0756 96.8253 67.7221 94.4511C67.2554 93.9844 67.2554 93.2538 67.7221 92.7871C68.1887 92.3204 68.9191 92.3204 69.3857 92.7871C73.3623 96.7441 79.8142 96.7441 83.7705 92.7871C84.2371 92.3204 84.9675 92.3204 85.4342 92.7871C85.9008 93.2538 85.9008 93.9844 85.4342 94.4511C83.0401 96.805 79.8953 98.124 76.568 98.124Z" fill="#161616"/>
<path d="M42.5853 80.571C42.5853 80.571 47.1503 77.7504 56.7266 77.7504C66.3029 77.7504 70.5433 80.429 70.5433 80.429L67.3985 88.7488L59.2221 93.6189C59.2221 93.6189 54.5151 94.4103 53.8862 93.9233C53.2572 93.4566 42.5853 80.571 42.5853 80.571Z" fill="#3B5DF6"/>
<path d="M83.4269 80.571C83.4269 80.571 87.9919 77.7504 97.5682 77.7504C107.144 77.7504 111.385 80.429 111.385 80.429L108.24 88.7488L100.064 93.6189C100.064 93.6189 95.3567 94.4103 94.7277 93.9233C94.0988 93.4566 83.4269 80.571 83.4269 80.571Z" fill="#3B5DF6"/>
<path d="M43.6395 56.0172C43.4163 56.0172 43.1931 55.9766 42.97 55.8954C41.9758 55.5302 41.4686 54.4141 41.8338 53.4198C41.9352 53.156 44.3496 46.8857 52.4448 45.4855C59.8908 44.2071 65.3485 50.1933 65.5717 50.4571C66.2818 51.2485 66.2209 52.466 65.4297 53.1763C64.6384 53.8865 63.4211 53.8256 62.711 53.0342C62.6501 52.9733 58.4097 48.3873 53.0941 49.2802C47.2509 50.2745 45.5061 54.5764 45.4452 54.7591C45.1612 55.5302 44.4308 56.0172 43.6395 56.0172Z" fill="#0C0C0C"/>
<path d="M107.772 55.9969C106.981 55.9969 106.251 55.5098 105.967 54.7387C105.906 54.5764 104.161 50.2745 98.3177 49.2802C93.0021 48.367 88.7414 52.9733 88.7009 53.0342C87.9908 53.8256 86.7734 53.8865 85.9822 53.1763C85.1909 52.466 85.13 51.2485 85.8402 50.4571C86.0633 50.1933 91.5413 44.2071 98.967 45.4855C107.062 46.8654 109.477 53.156 109.578 53.4198C109.943 54.4141 109.436 55.5301 108.442 55.8954C108.219 55.9563 107.995 55.9969 107.772 55.9969Z" fill="#0C0C0C"/>
</svg>
